<?xml version="1.0" encoding="UTF-8"?>
<svg xmlns="http://www.w3.org/2000/svg" xmlns:xlink="http://www.w3.org/1999/xlink" width="484pt" height="144pt" viewBox="0 0 484 144" version="1.1">
<g id="surface1">
<path style=" stroke:none;fill-rule:nonzero;fill:rgb(69.398499%,70.199585%,71.398926%);fill-opacity:1;" d="M 467.6875 144 L 17.257813 144 C 7.898438 144 0 136.304688 0 126.949219 L 0 17.308594 C 0 7.953125 7.898438 0 17.257813 0 L 467.6875 0 C 477.039063 0 484 7.953125 484 17.308594 L 484 126.949219 C 484 136.304688 476.804688 144 467.449219 144 L 467.6875 144 "/>
<path style=" stroke:none;fill-rule:nonzero;fill:rgb(0%,0%,0%);fill-opacity:1;" d="M 481.453125 126.953125 C 481.453125 134.550781 475.300781 140.703125 467.691406 140.703125 L 17.257813 140.703125 C 9.652344 140.703125 3.476563 134.550781 3.476563 126.953125 L 3.476563 17.308594 C 3.476563 9.714844 9.652344 3.539063 17.257813 3.539063 L 467.6875 3.539063 C 475.300781 3.539063 481.449219 9.714844 481.449219 17.308594 L 481.449219 126.953125 L 481.453125 126.953125 "/>
<path style=" stroke:none;fill-rule:nonzero;fill:rgb(100%,100%,100%);fill-opacity:1;" d="M 108.441406 71.367188 C 108.335938 59.796875 117.914063 54.167969 118.351563 53.90625 C 112.929688 45.996094 104.519531 44.914063 101.566406 44.828125 C 94.503906 44.089844 87.65625 49.054688 84.058594 49.054688 C 80.390625 49.054688 74.847656 44.902344 68.882813 45.027344 C 61.199219 45.144531 54.011719 49.59375 50.070313 56.5 C 41.933594 70.582031 48.003906 91.277344 55.792969 102.660156 C 59.691406 108.234375 64.246094 114.460938 70.210938 114.242188 C 76.042969 114 78.222656 110.523438 85.265625 110.523438 C 92.238281 110.523438 94.285156 114.242188 100.367188 114.101563 C 106.628906 114 110.570313 108.503906 114.332031 102.875 C 118.835938 96.484375 120.644531 90.191406 120.71875 89.867188 C 120.574219 89.820313 108.558594 85.238281 108.441406 71.367188 "/>
<path style=" stroke:none;fill-rule:nonzero;fill:rgb(100%,100%,100%);fill-opacity:1;" d="M 96.953125 37.34375 C 100.089844 33.417969 102.234375 28.082031 101.640625 22.660156 C 97.097656 22.863281 91.417969 25.800781 88.148438 29.644531 C 85.257813 33.023438 82.671875 38.566406 83.339844 43.78125 C 88.441406 44.160156 93.675781 41.207031 96.953125 37.34375 "/>
<path style=" stroke:none;fill-rule:nonzero;fill:rgb(100%,100%,100%);fill-opacity:1;" d="M 178.902344 93.523438 L 174.863281 81.046875 C 174.4375 79.773438 173.632813 76.773438 172.453125 72.046875 L 172.308594 72.046875 C 171.839844 74.082031 171.082031 77.078125 170.042969 81.046875 L 166.074219 93.523438 Z M 192.867188 113.441406 L 184.714844 113.441406 L 180.25 99.40625 L 164.726563 99.40625 L 160.472656 113.441406 L 152.535156 113.441406 L 167.914063 65.667969 L 177.414063 65.667969 L 192.867188 113.441406 "/>
<path style=" stroke:none;fill-rule:nonzero;fill:rgb(100%,100%,100%);fill-opacity:1;" d="M 224.621094 96.074219 C 224.621094 92.722656 223.863281 89.957031 222.351563 87.78125 C 220.695313 85.515625 218.476563 84.378906 215.6875 84.378906 C 213.800781 84.378906 212.085938 85.011719 210.550781 86.257813 C 209.015625 87.511719 208.011719 89.152344 207.539063 91.1875 C 207.300781 92.132813 207.183594 92.910156 207.183594 93.523438 L 207.183594 99.265625 C 207.183594 101.769531 207.953125 103.886719 209.488281 105.609375 C 211.023438 107.335938 213.019531 108.199219 215.476563 108.199219 C 218.359375 108.199219 220.605469 107.085938 222.210938 104.867188 C 223.816406 102.644531 224.621094 99.714844 224.621094 96.074219 Z M 232.417969 95.792969 C 232.417969 101.652344 230.835938 106.28125 227.667969 109.683594 C 224.832031 112.710938 221.3125 114.222656 217.105469 114.222656 C 212.570313 114.222656 209.308594 112.589844 207.324219 109.332031 L 207.183594 109.332031 L 207.183594 127.476563 L 199.527344 127.476563 L 199.527344 90.335938 C 199.527344 86.652344 199.433594 82.871094 199.246094 78.992188 L 205.976563 78.992188 L 206.402344 84.453125 L 206.546875 84.453125 C 209.097656 80.339844 212.972656 78.285156 218.171875 78.285156 C 222.234375 78.285156 225.625 79.890625 228.34375 83.101563 C 231.058594 86.320313 232.417969 90.550781 232.417969 95.792969 "/>
<path style=" stroke:none;fill-rule:nonzero;fill:rgb(100%,100%,100%);fill-opacity:1;" d="M 264.242188 96.074219 C 264.242188 92.722656 263.484375 89.957031 261.972656 87.78125 C 260.316406 85.515625 258.101563 84.378906 255.308594 84.378906 C 253.417969 84.378906 251.707031 85.011719 250.171875 86.257813 C 248.636719 87.511719 247.632813 89.152344 247.160156 91.1875 C 246.925781 92.132813 246.808594 92.910156 246.808594 93.523438 L 246.808594 99.265625 C 246.808594 101.769531 247.574219 103.886719 249.105469 105.609375 C 250.640625 107.335938 252.640625 108.199219 255.101563 108.199219 C 257.980469 108.199219 260.226563 107.085938 261.832031 104.867188 C 263.4375 102.644531 264.242188 99.714844 264.242188 96.074219 Z M 272.039063 95.792969 C 272.039063 101.652344 270.453125 106.28125 267.285156 109.683594 C 264.453125 112.710938 260.933594 114.222656 256.726563 114.222656 C 252.191406 114.222656 248.929688 112.589844 246.945313 109.332031 L 246.808594 109.332031 L 246.808594 127.476563 L 239.152344 127.476563 L 239.152344 90.335938 C 239.152344 86.652344 239.054688 82.871094 238.867188 78.992188 L 245.601563 78.992188 L 246.027344 84.453125 L 246.167969 84.453125 C 248.71875 80.339844 252.589844 78.285156 257.792969 78.285156 C 261.851563 78.285156 265.246094 79.890625 267.964844 83.101563 C 270.679688 86.320313 272.039063 90.550781 272.039063 95.792969 "/>
<path style=" stroke:none;fill-rule:nonzero;fill:rgb(100%,100%,100%);fill-opacity:1;" d="M 316.339844 100.046875 C 316.339844 104.109375 314.929688 107.414063 312.097656 109.96875 C 308.984375 112.757813 304.652344 114.152344 299.085938 114.152344 C 293.945313 114.152344 289.820313 113.15625 286.699219 111.171875 L 288.476563 104.792969 C 291.835938 106.828125 295.523438 107.84375 299.539063 107.84375 C 302.421875 107.84375 304.664063 107.191406 306.277344 105.890625 C 307.882813 104.589844 308.683594 102.847656 308.683594 100.671875 C 308.683594 98.730469 308.023438 97.097656 306.699219 95.773438 C 305.378906 94.449219 303.179688 93.21875 300.109375 92.078125 C 291.742188 88.957031 287.5625 84.390625 287.5625 78.378906 C 287.5625 74.449219 289.027344 71.230469 291.960938 68.722656 C 294.882813 66.214844 298.78125 64.957031 303.65625 64.957031 C 308.003906 64.957031 311.613281 65.714844 314.496094 67.226563 L 312.582031 73.464844 C 309.890625 72 306.847656 71.265625 303.4375 71.265625 C 300.746094 71.265625 298.640625 71.929688 297.136719 73.253906 C 295.859375 74.433594 295.222656 75.875 295.222656 77.578125 C 295.222656 79.46875 295.949219 81.027344 297.414063 82.253906 C 298.691406 83.390625 301.003906 84.617188 304.363281 85.941406 C 308.472656 87.597656 311.496094 89.53125 313.4375 91.75 C 315.371094 93.972656 316.339844 96.742188 316.339844 100.046875 "/>
<path style=" stroke:none;fill-rule:nonzero;fill:rgb(100%,100%,100%);fill-opacity:1;" d="M 341.644531 84.734375 L 333.210938 84.734375 L 333.210938 101.464844 C 333.210938 105.714844 334.695313 107.84375 337.675781 107.84375 C 339.042969 107.84375 340.179688 107.722656 341.078125 107.488281 L 341.285156 113.300781 C 339.78125 113.867188 337.796875 114.152344 335.335938 114.152344 C 332.3125 114.152344 329.949219 113.226563 328.246094 111.386719 C 326.550781 109.542969 325.691406 106.449219 325.691406 102.101563 L 325.691406 84.734375 L 320.664063 84.734375 L 320.664063 78.992188 L 325.691406 78.992188 L 325.691406 72.683594 L 333.210938 70.417969 L 333.210938 78.992188 L 341.644531 78.992188 L 341.644531 84.734375 "/>
<path style=" stroke:none;fill-rule:nonzero;fill:rgb(100%,100%,100%);fill-opacity:1;" d="M 371.765625 96.183594 C 371.765625 93.007813 371.085938 90.28125 369.714844 88.007813 C 368.105469 85.257813 365.8125 83.886719 362.839844 83.886719 C 359.761719 83.886719 357.429688 85.257813 355.820313 88.007813 C 354.449219 90.28125 353.769531 93.050781 353.769531 96.328125 C 353.769531 99.503906 354.449219 102.226563 355.820313 104.5 C 357.476563 107.246094 359.789063 108.621094 362.769531 108.621094 C 365.695313 108.621094 367.988281 107.222656 369.640625 104.429688 C 371.058594 102.109375 371.765625 99.355469 371.765625 96.183594 Z M 379.710938 95.933594 C 379.710938 101.226563 378.195313 105.574219 375.175781 108.976563 C 372.003906 112.476563 367.796875 114.222656 362.554688 114.222656 C 357.496094 114.222656 353.472656 112.542969 350.472656 109.191406 C 347.472656 105.835938 345.972656 101.601563 345.972656 96.503906 C 345.972656 91.164063 347.515625 86.789063 350.613281 83.390625 C 353.703125 79.984375 357.878906 78.285156 363.121094 78.285156 C 368.175781 78.285156 372.242188 79.960938 375.316406 83.320313 C 378.246094 86.582031 379.710938 90.785156 379.710938 95.933594 "/>
<path style=" stroke:none;fill-rule:nonzero;fill:rgb(100%,100%,100%);fill-opacity:1;" d="M 404.589844 85.726563 C 403.832031 85.585938 403.023438 85.515625 402.175781 85.515625 C 399.484375 85.515625 397.402344 86.53125 395.9375 88.566406 C 394.660156 90.359375 394.023438 92.628906 394.023438 95.367188 L 394.023438 113.441406 L 386.371094 113.441406 L 386.441406 89.839844 C 386.441406 85.867188 386.34375 82.253906 386.15625 78.992188 L 392.824219 78.992188 L 393.101563 85.585938 L 393.3125 85.585938 C 394.121094 83.320313 395.394531 81.496094 397.140625 80.128906 C 398.847656 78.898438 400.691406 78.285156 402.675781 78.285156 C 403.382813 78.285156 404.019531 78.335938 404.589844 78.425781 L 404.589844 85.726563 "/>
<path style=" stroke:none;fill-rule:nonzero;fill:rgb(100%,100%,100%);fill-opacity:1;" d="M 431.519531 92.601563 C 431.570313 90.335938 431.070313 88.375 430.035156 86.71875 C 428.707031 84.59375 426.675781 83.53125 423.933594 83.53125 C 421.429688 83.53125 419.398438 84.566406 417.839844 86.652344 C 416.5625 88.304688 415.808594 90.289063 415.574219 92.601563 Z M 438.820313 94.589844 C 438.820313 95.957031 438.726563 97.117188 438.539063 98.058594 L 415.574219 98.058594 C 415.667969 101.464844 416.773438 104.0625 418.90625 105.859375 C 420.839844 107.464844 423.34375 108.269531 426.414063 108.269531 C 429.816406 108.269531 432.914063 107.722656 435.707031 106.636719 L 436.90625 111.953125 C 433.644531 113.371094 429.796875 114.082031 425.355469 114.082031 C 420.015625 114.082031 415.820313 112.511719 412.769531 109.363281 C 409.726563 106.222656 408.199219 102.007813 408.199219 96.710938 C 408.199219 91.515625 409.617188 87.191406 412.453125 83.742188 C 415.429688 80.054688 419.445313 78.214844 424.503906 78.214844 C 429.464844 78.214844 433.222656 80.054688 435.777344 83.742188 C 437.800781 86.671875 438.820313 90.289063 438.820313 94.589844 "/>
<path style=" stroke:none;fill-rule:nonzero;fill:rgb(100%,100%,100%);fill-opacity:1;" d="M 172.402344 36.382813 C 172.402344 33.640625 171.675781 31.539063 170.226563 30.078125 C 168.773438 28.613281 166.65625 27.882813 163.871094 27.882813 C 162.683594 27.882813 161.675781 27.964844 160.839844 28.128906 L 160.839844 45.679688 C 161.304688 45.75 162.152344 45.78125 163.382813 45.78125 C 166.261719 45.78125 168.484375 44.980469 170.050781 43.378906 C 171.617188 41.777344 172.402344 39.445313 172.402344 36.382813 Z M 176.371094 36.277344 C 176.371094 40.503906 175.105469 43.683594 172.574219 45.820313 C 170.230469 47.789063 166.898438 48.777344 162.582031 48.777344 C 160.445313 48.777344 158.609375 48.683594 157.078125 48.5 L 157.078125 25.410156 C 159.078125 25.085938 161.234375 24.925781 163.558594 24.925781 C 167.664063 24.925781 170.765625 25.816406 172.855469 27.605469 C 175.195313 29.625 176.371094 32.515625 176.371094 36.277344 "/>
<path style=" stroke:none;fill-rule:nonzero;fill:rgb(100%,100%,100%);fill-opacity:1;" d="M 193.5 40.089844 C 193.5 38.53125 193.164063 37.191406 192.492188 36.074219 C 191.703125 34.722656 190.578125 34.046875 189.113281 34.046875 C 187.605469 34.046875 186.453125 34.722656 185.664063 36.074219 C 184.992188 37.191406 184.65625 38.554688 184.65625 40.15625 C 184.65625 41.71875 184.992188 43.058594 185.664063 44.175781 C 186.480469 45.527344 187.613281 46.199219 189.078125 46.199219 C 190.515625 46.199219 191.644531 45.511719 192.457031 44.140625 C 193.152344 43 193.5 41.648438 193.5 40.089844 Z M 197.402344 39.96875 C 197.402344 42.566406 196.660156 44.703125 195.171875 46.375 C 193.617188 48.09375 191.550781 48.953125 188.976563 48.953125 C 186.488281 48.953125 184.511719 48.128906 183.035156 46.480469 C 181.5625 44.832031 180.828125 42.753906 180.828125 40.246094 C 180.828125 37.621094 181.585938 35.476563 183.105469 33.804688 C 184.628906 32.132813 186.675781 31.296875 189.253906 31.296875 C 191.738281 31.296875 193.730469 32.121094 195.242188 33.769531 C 196.679688 35.371094 197.402344 37.4375 197.402344 39.96875 "/>
<path style=" stroke:none;fill-rule:nonzero;fill:rgb(100%,100%,100%);fill-opacity:1;" d="M 225.605469 31.644531 L 220.3125 48.570313 L 216.867188 48.570313 L 214.671875 41.21875 C 214.113281 39.386719 213.664063 37.5625 213.3125 35.753906 L 213.246094 35.753906 C 212.921875 37.609375 212.46875 39.433594 211.886719 41.21875 L 209.554688 48.570313 L 206.070313 48.570313 L 201.089844 31.644531 L 204.957031 31.644531 L 206.871094 39.6875 C 207.335938 41.59375 207.71875 43.402344 208.023438 45.121094 L 208.089844 45.121094 C 208.367188 43.707031 208.832031 41.90625 209.484375 39.722656 L 211.886719 31.644531 L 214.949219 31.644531 L 217.25 39.550781 C 217.808594 41.476563 218.257813 43.335938 218.605469 45.121094 L 218.710938 45.121094 C 218.96875 43.378906 219.347656 41.523438 219.859375 39.550781 L 221.914063 31.644531 L 225.605469 31.644531 "/>
<path style=" stroke:none;fill-rule:nonzero;fill:rgb(100%,100%,100%);fill-opacity:1;" d="M 245.109375 48.570313 L 241.347656 48.570313 L 241.347656 38.878906 C 241.347656 35.890625 240.210938 34.394531 237.9375 34.394531 C 236.820313 34.394531 235.917969 34.808594 235.21875 35.628906 C 234.527344 36.449219 234.175781 37.417969 234.175781 38.53125 L 234.175781 48.570313 L 230.414063 48.570313 L 230.414063 36.484375 C 230.414063 35 230.367188 33.386719 230.277344 31.644531 L 233.582031 31.644531 L 233.757813 34.289063 L 233.863281 34.289063 C 234.300781 33.46875 234.953125 32.785156 235.8125 32.246094 C 236.832031 31.613281 237.972656 31.296875 239.222656 31.296875 C 240.804688 31.296875 242.117188 31.808594 243.160156 32.828125 C 244.460938 34.082031 245.109375 35.953125 245.109375 38.433594 L 245.109375 48.570313 "/>
<path style=" stroke:none;fill-rule:nonzero;fill:rgb(100%,100%,100%);fill-opacity:1;" d="M 255.484375 48.570313 L 251.726563 48.570313 L 251.726563 23.878906 L 255.484375 23.878906 L 255.484375 48.570313 "/>
<path style=" stroke:none;fill-rule:nonzero;fill:rgb(100%,100%,100%);fill-opacity:1;" d="M 273.730469 40.089844 C 273.730469 38.53125 273.394531 37.191406 272.71875 36.074219 C 271.933594 34.722656 270.804688 34.046875 269.347656 34.046875 C 267.832031 34.046875 266.683594 34.722656 265.898438 36.074219 C 265.226563 37.191406 264.886719 38.554688 264.886719 40.15625 C 264.886719 41.71875 265.226563 43.058594 265.898438 44.175781 C 266.710938 45.527344 267.847656 46.199219 269.3125 46.199219 C 270.75 46.199219 271.871094 45.511719 272.683594 44.140625 C 273.386719 43 273.730469 41.648438 273.730469 40.089844 Z M 277.636719 39.96875 C 277.636719 42.566406 276.890625 44.703125 275.40625 46.375 C 273.847656 48.09375 271.78125 48.953125 269.207031 48.953125 C 266.71875 48.953125 264.742188 48.128906 263.269531 46.480469 C 261.796875 44.832031 261.058594 42.753906 261.058594 40.246094 C 261.058594 37.621094 261.816406 35.476563 263.339844 33.804688 C 264.859375 32.132813 266.90625 31.296875 269.480469 31.296875 C 271.96875 31.296875 273.960938 32.121094 275.476563 33.769531 C 276.914063 35.371094 277.636719 37.4375 277.636719 39.96875 "/>
<path style=" stroke:none;fill-rule:nonzero;fill:rgb(100%,100%,100%);fill-opacity:1;" d="M 291.9375 42.753906 L 291.9375 40.140625 C 287.789063 40.070313 285.714844 41.210938 285.714844 43.554688 C 285.714844 44.4375 285.949219 45.097656 286.433594 45.539063 C 286.917969 45.980469 287.535156 46.199219 288.273438 46.199219 C 289.101563 46.199219 289.871094 45.941406 290.570313 45.417969 C 291.28125 44.894531 291.714844 44.226563 291.875 43.414063 C 291.917969 43.230469 291.9375 43.007813 291.9375 42.753906 Z M 295.84375 48.570313 L 292.464844 48.570313 L 292.183594 46.617188 L 292.078125 46.617188 C 290.921875 48.175781 289.273438 48.953125 287.136719 48.953125 C 285.539063 48.953125 284.246094 48.441406 283.273438 47.417969 C 282.390625 46.492188 281.949219 45.34375 281.949219 43.972656 C 281.949219 41.90625 282.808594 40.328125 284.542969 39.234375 C 286.273438 38.144531 288.707031 37.609375 291.839844 37.632813 L 291.839844 37.320313 C 291.839844 35.09375 290.671875 33.976563 288.328125 33.976563 C 286.660156 33.976563 285.1875 34.394531 283.917969 35.230469 L 283.152344 32.757813 C 284.722656 31.785156 286.664063 31.296875 288.960938 31.296875 C 293.382813 31.296875 295.597656 33.628906 295.597656 38.296875 L 295.597656 44.53125 C 295.597656 46.222656 295.683594 47.570313 295.84375 48.570313 "/>
<path style=" stroke:none;fill-rule:nonzero;fill:rgb(100%,100%,100%);fill-opacity:1;" d="M 313.324219 41.429688 L 313.324219 38.609375 C 313.324219 38.121094 313.289063 37.726563 313.21875 37.425781 C 313.007813 36.519531 312.554688 35.761719 311.859375 35.144531 C 311.15625 34.53125 310.316406 34.222656 309.34375 34.222656 C 307.941406 34.222656 306.839844 34.777344 306.03125 35.894531 C 305.234375 37.007813 304.824219 38.433594 304.824219 40.175781 C 304.824219 41.847656 305.210938 43.207031 305.984375 44.25 C 306.796875 45.363281 307.898438 45.921875 309.273438 45.921875 C 310.507813 45.921875 311.496094 45.457031 312.246094 44.53125 C 312.96875 43.671875 313.324219 42.636719 313.324219 41.429688 Z M 317.222656 48.570313 L 313.886719 48.570313 L 313.710938 45.851563 L 313.605469 45.851563 C 312.539063 47.917969 310.722656 48.953125 308.171875 48.953125 C 306.132813 48.953125 304.433594 48.152344 303.089844 46.550781 C 301.742188 44.949219 301.066406 42.871094 301.066406 40.316406 C 301.066406 37.574219 301.796875 35.359375 303.261719 33.664063 C 304.679688 32.085938 306.417969 31.296875 308.488281 31.296875 C 310.757813 31.296875 312.351563 32.0625 313.253906 33.59375 L 313.324219 33.59375 L 313.324219 23.878906 L 317.089844 23.878906 L 317.089844 44.007813 C 317.089844 45.65625 317.132813 47.175781 317.222656 48.570313 "/>
<path style=" stroke:none;fill-rule:nonzero;fill:rgb(100%,100%,100%);fill-opacity:1;" d="M 345.5 40.089844 C 345.5 38.53125 345.164063 37.191406 344.492188 36.074219 C 343.699219 34.722656 342.578125 34.046875 341.113281 34.046875 C 339.605469 34.046875 338.453125 34.722656 337.660156 36.074219 C 336.988281 37.191406 336.652344 38.554688 336.652344 40.15625 C 336.652344 41.71875 336.988281 43.058594 337.660156 44.175781 C 338.476563 45.527344 339.609375 46.199219 341.078125 46.199219 C 342.515625 46.199219 343.644531 45.511719 344.457031 44.140625 C 345.152344 43 345.5 41.648438 345.5 40.089844 Z M 349.398438 39.96875 C 349.398438 42.566406 348.65625 44.703125 347.171875 46.375 C 345.613281 48.09375 343.550781 48.953125 340.972656 48.953125 C 338.488281 48.953125 336.511719 48.128906 335.03125 46.480469 C 333.558594 44.832031 332.824219 42.753906 332.824219 40.246094 C 332.824219 37.621094 333.582031 35.476563 335.101563 33.804688 C 336.625 32.132813 338.671875 31.296875 341.253906 31.296875 C 343.734375 31.296875 345.734375 32.121094 347.238281 33.769531 C 348.675781 35.371094 349.398438 37.4375 349.398438 39.96875 "/>
<path style=" stroke:none;fill-rule:nonzero;fill:rgb(100%,100%,100%);fill-opacity:1;" d="M 369.628906 48.570313 L 365.871094 48.570313 L 365.871094 38.878906 C 365.871094 35.890625 364.734375 34.394531 362.453125 34.394531 C 361.339844 34.394531 360.4375 34.808594 359.742188 35.628906 C 359.046875 36.449219 358.695313 37.417969 358.695313 38.53125 L 358.695313 48.570313 L 354.933594 48.570313 L 354.933594 36.484375 C 354.933594 35 354.890625 33.386719 354.800781 31.644531 L 358.101563 31.644531 L 358.277344 34.289063 L 358.382813 34.289063 C 358.824219 33.46875 359.476563 32.785156 360.332031 32.246094 C 361.355469 31.613281 362.488281 31.296875 363.746094 31.296875 C 365.324219 31.296875 366.632813 31.808594 367.679688 32.828125 C 368.984375 34.082031 369.628906 35.953125 369.628906 38.433594 L 369.628906 48.570313 "/>
<path style=" stroke:none;fill-rule:nonzero;fill:rgb(100%,100%,100%);fill-opacity:1;" d="M 394.945313 34.464844 L 390.804688 34.464844 L 390.804688 42.683594 C 390.804688 44.773438 391.539063 45.820313 392.996094 45.820313 C 393.671875 45.820313 394.230469 45.761719 394.675781 45.644531 L 394.773438 48.5 C 394.027344 48.777344 393.054688 48.917969 391.847656 48.917969 C 390.363281 48.917969 389.203125 48.464844 388.371094 47.558594 C 387.527344 46.652344 387.113281 45.132813 387.113281 42.996094 L 387.113281 34.464844 L 384.640625 34.464844 L 384.640625 31.644531 L 387.113281 31.644531 L 387.113281 28.546875 L 390.804688 27.433594 L 390.804688 31.644531 L 394.945313 31.644531 L 394.945313 34.464844 "/>
<path style=" stroke:none;fill-rule:nonzero;fill:rgb(100%,100%,100%);fill-opacity:1;" d="M 414.867188 48.570313 L 411.101563 48.570313 L 411.101563 38.945313 C 411.101563 35.910156 409.964844 34.394531 407.695313 34.394531 C 405.949219 34.394531 404.757813 35.277344 404.105469 37.035156 C 403.992188 37.40625 403.929688 37.859375 403.929688 38.390625 L 403.929688 48.570313 L 400.171875 48.570313 L 400.171875 23.878906 L 403.929688 23.878906 L 403.929688 34.078125 L 404 34.078125 C 405.183594 32.226563 406.882813 31.296875 409.082031 31.296875 C 410.640625 31.296875 411.929688 31.808594 412.953125 32.828125 C 414.230469 34.105469 414.867188 35.996094 414.867188 38.503906 L 414.867188 48.570313 "/>
<path style=" stroke:none;fill-rule:nonzero;fill:rgb(100%,100%,100%);fill-opacity:1;" d="M 431.820313 38.332031 C 431.847656 37.21875 431.605469 36.253906 431.09375 35.441406 C 430.441406 34.394531 429.445313 33.875 428.097656 33.875 C 426.871094 33.875 425.867188 34.382813 425.105469 35.40625 C 424.480469 36.21875 424.109375 37.195313 423.988281 38.332031 Z M 435.410156 39.304688 C 435.410156 39.980469 435.363281 40.546875 435.269531 41.011719 L 423.988281 41.011719 C 424.039063 42.683594 424.578125 43.960938 425.621094 44.84375 C 426.578125 45.632813 427.8125 46.027344 429.320313 46.027344 C 430.988281 46.027344 432.507813 45.761719 433.882813 45.226563 L 434.472656 47.839844 C 432.867188 48.535156 430.980469 48.882813 428.792969 48.882813 C 426.171875 48.882813 424.109375 48.109375 422.613281 46.566406 C 421.113281 45.023438 420.371094 42.949219 420.371094 40.351563 C 420.371094 37.796875 421.066406 35.671875 422.460938 33.976563 C 423.921875 32.167969 425.890625 31.261719 428.378906 31.261719 C 430.8125 31.261719 432.664063 32.167969 433.910156 33.976563 C 434.914063 35.417969 435.410156 37.195313 435.410156 39.304688 "/>
</g>
</svg>
